<svg width="190" height="46" viewBox="0 0 190 46" fill="none" xmlns="http://www.w3.org/2000/svg">
<path d="M87.3639 18.8655C86.5933 12.4712 81.7536 8.7941 75.3457 8.7941C68.0321 8.7941 62.4489 13.9582 62.4489 23.0158C62.4489 32.0463 67.9375 37.2375 75.3457 37.2375C82.443 37.2375 86.7285 32.5194 87.3639 27.4229L81.4427 27.3958C80.8884 30.3564 78.5632 32.0598 75.4404 32.0598C71.236 32.0598 68.3836 28.937 68.3836 23.0158C68.3836 17.2568 71.1955 13.9718 75.4809 13.9718C78.6848 13.9718 80.9965 15.8238 81.4427 18.8655H87.3639Z" fill="white"/>
<path d="M91.4533 36.8589H97.2122V25.1112C97.2122 22.5561 99.0778 20.7987 101.619 20.7987C102.417 20.7987 103.512 20.9339 104.053 21.1096V15.9996C103.539 15.8779 102.823 15.7968 102.241 15.7968C99.916 15.7968 98.0098 17.1487 97.2528 19.7172H97.0365V16.0942H91.4533V36.8589Z" fill="white"/>
<path d="M111.218 44.6457C115.503 44.6457 117.774 42.4557 118.95 39.103L127.021 16.1212L120.924 16.0942L116.585 31.3433H116.368L112.069 16.0942H106.013L113.462 37.4538L113.124 38.3325C112.367 40.2792 110.92 40.3738 108.892 39.7519L107.595 44.0509C108.419 44.4024 109.758 44.6457 111.218 44.6457Z" fill="white"/>
<path d="M129.968 44.6457H135.727V33.5333H135.903C136.7 35.2637 138.444 37.1969 141.797 37.1969C146.528 37.1969 150.219 33.4522 150.219 26.5036C150.219 19.3657 146.366 15.8238 141.81 15.8238C138.336 15.8238 136.673 17.8922 135.903 19.582H135.646V16.0942H129.968V44.6457ZM135.605 26.4766C135.605 22.7724 137.174 20.4067 139.972 20.4067C142.824 20.4067 144.338 22.8806 144.338 26.4766C144.338 30.0996 142.797 32.6141 139.972 32.6141C137.201 32.6141 135.605 30.1807 135.605 26.4766Z" fill="white"/>
<path d="M163.522 37.2645C168.659 37.2645 172.119 34.7635 172.931 30.9107L167.604 30.5592C167.023 32.1409 165.536 32.9655 163.616 32.9655C160.737 32.9655 158.912 31.0594 158.912 27.9636V27.9501H173.052V26.3684C173.052 19.3117 168.78 15.8238 163.292 15.8238C157.181 15.8238 153.22 20.1633 153.22 26.5712C153.22 33.1548 157.127 37.2645 163.522 37.2645ZM158.912 24.3812C159.033 22.0154 160.831 20.1228 163.386 20.1228C165.887 20.1228 167.618 21.9072 167.631 24.3812H158.912Z" fill="white"/>
<path d="M176.81 36.8589H182.569V25.1112C182.569 22.5561 184.435 20.7987 186.976 20.7987C187.774 20.7987 188.869 20.9339 189.41 21.1096V15.9996C188.896 15.8779 188.18 15.7968 187.598 15.7968C185.273 15.7968 183.367 17.1487 182.61 19.7172H182.394V16.0942H176.81V36.8589Z" fill="white"/>
<path d="M9.76228 9.76335H18.4572V18.4583H9.76228V9.76335Z" fill="#586AF8"/>
<path d="M18.4572 18.4583H27.3047V27.3058H18.4572V18.4583Z" fill="#586AF8"/>
<path d="M14.186 22.8821H31.576V31.577H14.186V22.8821Z" fill="#586AF8"/>
<path d="M14.186 22.8821H18.4572V36.0008H14.186V22.8821Z" fill="#586AF8"/>
<path d="M27.3047 22.8821H31.576V36.0008H27.3047V22.8821Z" fill="#586AF8"/>
<path d="M27.3047 9.76335H35.9997V18.4583H27.3047V9.76335Z" fill="#586AF8"/>
<path fill-rule="evenodd" clip-rule="evenodd" d="M42.5595 3.20337L3.20333 3.20337L3.20333 42.5596H42.5595V3.20337ZM-8.39233e-05 -4.57764e-05L-8.39233e-05 45.763H45.7629V-4.57764e-05L-8.39233e-05 -4.57764e-05Z" fill="#586AF8"/>
</svg>
