<svg width="190" height="46" viewBox="0 0 190 46" fill="none" xmlns="http://www.w3.org/2000/svg">
<path d="M87.364 18.8656C86.5934 12.4712 81.7537 8.79413 75.3458 8.79413C68.0322 8.79413 62.449 13.9583 62.449 23.0158C62.449 32.0463 67.9376 37.2375 75.3458 37.2375C82.4432 37.2375 86.7286 32.5195 87.364 27.4229L81.4428 27.3959C80.8885 30.3565 78.5633 32.0598 75.4405 32.0598C71.2361 32.0598 68.3837 28.937 68.3837 23.0158C68.3837 17.2568 71.1956 13.9718 75.481 13.9718C78.685 13.9718 80.9967 15.8239 81.4428 18.8656H87.364Z" fill="#2D2D2D"/>
<path d="M91.4534 36.859H97.2123V25.1112C97.2123 22.5562 99.0779 20.7987 101.619 20.7987C102.417 20.7987 103.512 20.9339 104.053 21.1097V15.9996C103.539 15.8779 102.823 15.7968 102.241 15.7968C99.9161 15.7968 98.0099 17.1487 97.2529 19.7172H97.0366V16.0942H91.4534V36.859Z" fill="#2D2D2D"/>
<path d="M111.218 44.6458C115.503 44.6458 117.774 42.4557 118.95 39.1031L127.021 16.1213L120.924 16.0942L116.585 31.3433H116.368L112.069 16.0942H106.013L113.462 37.4538L113.124 38.3325C112.367 40.2792 110.92 40.3738 108.893 39.752L107.595 44.0509C108.419 44.4024 109.758 44.6458 111.218 44.6458Z" fill="#2D2D2D"/>
<path d="M129.968 44.6458H135.727V33.5334H135.903C136.701 35.2638 138.444 37.1969 141.797 37.1969C146.529 37.1969 150.219 33.4523 150.219 26.5036C150.219 19.3658 146.366 15.8239 141.811 15.8239C138.336 15.8239 136.673 17.8922 135.903 19.5821H135.646V16.0942H129.968V44.6458ZM135.605 26.4766C135.605 22.7725 137.174 20.4067 139.972 20.4067C142.824 20.4067 144.339 22.8806 144.339 26.4766C144.339 30.0996 142.797 32.6141 139.972 32.6141C137.201 32.6141 135.605 30.1807 135.605 26.4766Z" fill="#2D2D2D"/>
<path d="M163.522 37.2645C168.659 37.2645 172.12 34.7636 172.931 30.9107L167.604 30.5593C167.023 32.1409 165.536 32.9656 163.616 32.9656C160.737 32.9656 158.912 31.0594 158.912 27.9637V27.9501H173.052V26.3685C173.052 19.3117 168.78 15.8239 163.292 15.8239C157.181 15.8239 153.22 20.1634 153.22 26.5712C153.22 33.1548 157.127 37.2645 163.522 37.2645ZM158.912 24.3812C159.033 22.0154 160.831 20.1228 163.386 20.1228C165.887 20.1228 167.618 21.9073 167.631 24.3812H158.912Z" fill="#2D2D2D"/>
<path d="M176.811 36.859H182.569V25.1112C182.569 22.5562 184.435 20.7987 186.977 20.7987C187.774 20.7987 188.869 20.9339 189.41 21.1097V15.9996C188.896 15.8779 188.18 15.7968 187.598 15.7968C185.273 15.7968 183.367 17.1487 182.61 19.7172H182.394V16.0942H176.811V36.859Z" fill="#2D2D2D"/>
<path d="M9.76236 9.76343H18.4573V18.4584H9.76236V9.76343Z" fill="#586AF8"/>
<path d="M18.4573 18.4584H27.3048V27.3059H18.4573V18.4584Z" fill="#586AF8"/>
<path d="M14.1861 22.8821H31.576V31.5771H14.1861V22.8821Z" fill="#586AF8"/>
<path d="M14.1861 22.8821H18.4573V36.0009H14.1861V22.8821Z" fill="#586AF8"/>
<path d="M27.3048 22.8821H31.576V36.0009H27.3048V22.8821Z" fill="#586AF8"/>
<path d="M27.3048 9.76343H35.9998V18.4584H27.3048V9.76343Z" fill="#586AF8"/>
<path fill-rule="evenodd" clip-rule="evenodd" d="M42.5596 3.20341H3.20341V42.5596H42.5596V3.20341ZM0 0V45.763H45.763V0H0Z" fill="#586AF8"/>
</svg>
